<svg width="36" height="120" viewBox="0 0 36 120" fill="none" xmlns="http://www.w3.org/2000/svg">
<g clip-path="url(#clip0_326_193)">
<path d="M9.61073 37.7953C6.80467 36.2447 4.56865 33.9552 2.89866 30.9307C1.22867 27.9063 0.393677 24.2843 0.393677 20.0606C0.393677 15.8369 1.22867 12.2148 2.89866 9.19039C4.56865 6.16596 6.80868 3.87644 9.61073 2.32586C12.4168 0.775288 15.4878 0 18.8318 0C23.067 0 26.5836 1.03775 29.3897 3.10923C32.1917 5.1807 34.0584 8.10418 34.9897 11.8797L28.4704 13.5595C27.6514 11.3951 26.4832 9.71129 24.9618 8.51605C23.4403 7.32082 21.397 6.7232 18.8318 6.7232C16.7523 6.7232 14.8776 7.21987 13.2036 8.20917C11.5336 9.19847 10.2049 10.6925 9.22133 12.6913C8.23781 14.6901 7.74404 17.1452 7.74404 20.0606C7.74404 22.976 8.23781 25.4311 9.22133 27.4298C10.2049 29.4286 11.5336 30.9227 13.2036 31.912C14.8736 32.9013 16.7483 33.3979 18.8318 33.3979C21.393 33.3979 23.4363 32.8003 24.9618 31.6051C26.4832 30.4099 27.6554 28.7301 28.4704 26.5617L34.9897 28.2415C34.0624 32.017 32.1957 34.9364 29.3897 37.0119C26.5836 39.0834 23.067 40.1211 18.8318 40.1211C15.4878 40.1211 12.4168 39.3459 9.61073 37.7953Z" fill="#211F1A"/>
<path d="M0.280701 43.6543H8.41788L17.6108 68.1405L26.8038 43.6543H34.937V82.879H27.695V58.6715L20.2282 79.2933H14.9935L7.52668 58.6715V82.879H0.280701V43.6543Z" fill="#211F1A"/>
<path d="M3.82171 114.234L9.91957 105.903L0 102.52L3.00277 93.4583L12.9183 96.7533V86.4121H22.1996V96.7533L32.1152 93.4583L35.1179 102.52L25.1984 105.907L31.2962 114.238L23.5605 120.004L17.555 111.492L11.5494 120.004L3.81769 114.238L3.82171 114.234Z" fill="#211F1A"/>
</g>
<defs>
<clipPath id="clip0_326_193">
<rect width="35.1219" height="120" fill="white"/>
</clipPath>
</defs>
</svg>
